<svg width="100" height="100" viewBox="0 0 100 100" fill="none" xmlns="http://www.w3.org/2000/svg">
  <rect width="100" height="100" rx="20" fill="#0F0F0F"></rect>
  <path d="M30 20C40 20 42 32 35 35C42 38 44 50 35 52C44 54 42 68 30 68" stroke="#FF9324" stroke-width="5" fill="none"></path>
  <path d="M60 30H82C83.1 30 84 30.9 84 32V66C84 67.1 83.1 68 82 68H60L54 74V24L60 30Z" fill="#FF9324"></path>
  <rect x="62" y="38" width="18" height="3" rx="1.5" fill="#0F0F0F"></rect>
  <rect x="62" y="45" width="18" height="3" rx="1.5" fill="#0F0F0F"></rect>
  <rect x="62" y="52" width="18" height="3" rx="1.5" fill="#0F0F0F"></rect>
</svg>
